<mxfile host="127.0.0.1" modified="2022-10-07T11:31:14.349Z" agent="2.2.1 https://b3log.org/siyuan Electron" etag="LZUg7lsUVLjbf77UKApb" version="@DRAWIO-VERSION@">
  <diagram id="Snr0RSqq6Z9ddFiNdLiP" name="第 1 页">
    <mxGraphModel dx="555" dy="498" grid="1" gridSize="10" guides="1" tooltips="1" connect="1" arrows="1" fold="1" page="1" pageScale="1" pageWidth="827" pageHeight="1169" math="0" shadow="0">
      <root>
        <mxCell id="0" />
        <mxCell id="1" parent="0" />
        <mxCell id="sunBXYy7ufCgANGd-dcC-1" value="负载均衡器/代理服务器" style="ellipse;whiteSpace=wrap;html=1;" vertex="1" parent="1">
          <mxGeometry x="170" y="190" width="120" height="80" as="geometry" />
        </mxCell>
        <mxCell id="sunBXYy7ufCgANGd-dcC-2" value="服务器1" style="rounded=0;whiteSpace=wrap;html=1;" vertex="1" parent="1">
          <mxGeometry x="80" y="350" width="120" height="60" as="geometry" />
        </mxCell>
        <mxCell id="sunBXYy7ufCgANGd-dcC-3" value="服务器2" style="rounded=0;whiteSpace=wrap;html=1;" vertex="1" parent="1">
          <mxGeometry x="294" y="350" width="120" height="60" as="geometry" />
        </mxCell>
        <mxCell id="sunBXYy7ufCgANGd-dcC-4" value="" style="endArrow=none;dashed=1;html=1;rounded=0;entryX=0.5;entryY=1;entryDx=0;entryDy=0;exitX=0.5;exitY=0;exitDx=0;exitDy=0;" edge="1" parent="1" source="sunBXYy7ufCgANGd-dcC-2" target="sunBXYy7ufCgANGd-dcC-1">
          <mxGeometry width="50" height="50" relative="1" as="geometry">
            <mxPoint x="260" y="380" as="sourcePoint" />
            <mxPoint x="310" y="330" as="targetPoint" />
          </mxGeometry>
        </mxCell>
        <mxCell id="sunBXYy7ufCgANGd-dcC-5" value="" style="endArrow=none;dashed=1;html=1;dashPattern=1 3;strokeWidth=2;rounded=0;exitX=0.5;exitY=0;exitDx=0;exitDy=0;" edge="1" parent="1" source="sunBXYy7ufCgANGd-dcC-3">
          <mxGeometry width="50" height="50" relative="1" as="geometry">
            <mxPoint x="250" y="360" as="sourcePoint" />
            <mxPoint x="230" y="270" as="targetPoint" />
          </mxGeometry>
        </mxCell>
        <mxCell id="sunBXYy7ufCgANGd-dcC-6" value="Text" style="text;html=1;align=center;verticalAlign=middle;resizable=0;points=[];autosize=1;strokeColor=none;fillColor=none;" vertex="1" parent="1">
          <mxGeometry x="170" y="140" width="40" height="20" as="geometry" />
        </mxCell>
      </root>
    </mxGraphModel>
  </diagram>
</mxfile>
